<svg width="422" height="338" viewBox="0 0 422 338" fill="none" xmlns="http://www.w3.org/2000/svg">
<path d="M4.91755 153.12C-2.68245 169.52 11.0842 174.62 18.9175 175.12L342.417 324.12C351.417 331.12 362.417 335.12 368.417 324.12C373.217 315.32 392.417 297.786 401.417 290.12C425.917 265.62 415.917 242.62 403.917 218.62C394.317 199.42 395.251 177.953 396.917 169.62C408.517 122.42 388.417 111.12 365.917 101.62C315.917 83.1196 311.917 43.6196 297.417 29.6196C293.084 23.4529 276.617 13.5196 245.417 23.1196C214.217 32.7196 189.084 21.4529 180.417 14.6196C145.917 -7.8804 121.417 7.11958 105.917 29.6196C93.0288 48.329 66.4175 60.1196 52.9175 62.6196C37.9175 64.7863 8.21748 76.2196 9.41748 104.62C10.6175 133.02 6.91753 148.786 4.91755 153.12Z" fill="#6BEF70"/>
<path fill-rule="evenodd" clip-rule="evenodd" d="M136.768 7.63714C125.143 11.1597 115.555 20.0361 107.976 31.0378C101.239 40.8182 91.0126 48.6721 80.8727 54.3769C70.7309 60.0829 60.4439 63.7684 53.3728 65.0778L53.3241 65.0868L53.275 65.0939C46.072 66.1344 35.3098 69.4191 26.5666 75.8014C17.896 82.1306 11.3598 91.3648 11.9154 104.514C12.5207 118.839 11.8923 130.023 10.8475 138.211C9.81141 146.332 8.34716 151.655 7.18759 154.167L7.18597 154.171C5.42294 157.975 5.00656 160.893 5.27859 163.1C5.54613 165.269 6.50277 166.952 7.87635 168.293C10.7416 171.089 15.4498 172.393 19.0769 172.625L19.5411 172.654L343.725 321.969L343.952 322.146C348.324 325.546 352.876 327.959 356.811 328.384C358.724 328.591 360.426 328.323 361.924 327.533C363.423 326.743 364.911 325.328 366.223 322.922C368.827 318.148 375.1 311.319 381.586 304.915C388.126 298.459 395.18 292.152 399.72 288.282C411.441 276.53 414.736 265.379 413.863 254.38C412.97 243.123 407.708 231.791 401.682 219.738C391.764 199.902 392.725 177.833 394.466 169.129L394.477 169.076L394.49 169.023C400.211 145.746 397.962 131.928 392.104 122.836C386.188 113.655 376.253 108.7 364.997 103.944C339.424 94.4688 325.542 79.5718 316.259 65.2949C312.49 59.4987 309.467 53.7808 306.763 48.6681C306.162 47.532 305.577 46.4259 305.003 45.3554C301.79 39.3618 298.985 34.6084 295.681 31.4181L295.509 31.2523L295.372 31.057C291.87 26.0734 276.713 16.106 246.153 25.509C214.164 35.3519 188.256 23.9246 178.961 16.6541C162.22 5.76382 148.26 4.15446 136.768 7.63714ZM135.318 2.85202C148.554 -1.15896 164.064 0.969499 181.783 12.5256L181.877 12.5869L181.965 12.6564C190.083 19.0564 214.376 30.055 244.682 20.7301C276.237 11.0212 293.978 20.6561 299.321 27.9834C303.188 31.7843 306.277 37.1486 309.41 42.9931C310.007 44.1067 310.608 45.2427 311.219 46.3978C313.919 51.5015 316.817 56.9807 320.451 62.5693C329.286 76.1574 342.392 90.2496 366.785 99.2749L366.838 99.2945L366.89 99.3164C378.112 104.055 389.457 109.498 396.307 120.128C403.218 130.853 405.222 146.27 399.359 170.162C397.773 178.164 396.892 198.978 406.154 217.502C412.127 229.449 417.866 241.616 418.847 253.984C419.848 266.588 415.907 279.165 403.185 291.887L403.115 291.958L403.039 292.023C398.575 295.825 391.572 302.083 385.099 308.474C378.536 314.953 372.808 321.291 370.612 325.317C368.925 328.411 366.787 330.622 364.255 331.956C361.722 333.291 358.987 333.648 356.274 333.355C351.047 332.79 345.692 329.794 341.113 326.271L18.2825 177.579C14.1029 177.232 8.30915 175.702 4.38403 171.871C2.28678 169.824 0.737166 167.126 0.316168 163.711C-0.100231 160.334 0.612068 156.466 2.64779 152.072C3.4882 150.251 4.87392 145.524 5.88775 137.578C6.89301 129.699 7.51456 118.8 6.91985 104.725C6.27546 89.4744 13.9892 78.792 23.6186 71.7628C33.1548 64.8018 44.7132 61.2867 52.5097 60.1526C58.9392 58.9539 68.6839 55.4975 78.421 50.0193C88.1839 44.5265 97.7078 37.1303 103.859 28.2013C111.78 16.7031 122.192 6.82947 135.318 2.85202Z" fill="black"/>
<path d="M205.917 92.1196C205.917 119.182 183.979 141.12 156.917 141.12C129.855 141.12 107.917 119.182 107.917 92.1196C107.917 65.0576 129.855 43.1196 156.917 43.1196C183.979 43.1196 205.917 65.0576 205.917 92.1196Z" fill="#F463A0"/>
<path fill-rule="evenodd" clip-rule="evenodd" d="M210.917 92.1196C210.917 121.943 186.74 146.12 156.917 146.12C127.094 146.12 102.917 121.943 102.917 92.1196C102.917 62.2962 127.094 38.1196 156.917 38.1196C186.74 38.1196 210.917 62.2962 210.917 92.1196ZM156.917 141.12C183.979 141.12 205.917 119.182 205.917 92.1196C205.917 65.0576 183.979 43.1196 156.917 43.1196C129.855 43.1196 107.917 65.0576 107.917 92.1196C107.917 119.182 129.855 141.12 156.917 141.12Z" fill="black"/>
<path d="M329.917 126.12C329.917 153.182 307.979 175.12 280.917 175.12C253.855 175.12 231.917 153.182 231.917 126.12C231.917 99.0576 253.855 77.1196 280.917 77.1196C307.979 77.1196 329.917 99.0576 329.917 126.12Z" fill="#FFE5F1"/>
<path fill-rule="evenodd" clip-rule="evenodd" d="M334.917 126.12C334.917 155.943 310.74 180.12 280.917 180.12C251.094 180.12 226.917 155.943 226.917 126.12C226.917 96.2962 251.094 72.1196 280.917 72.1196C310.74 72.1196 334.917 96.2962 334.917 126.12ZM280.917 175.12C307.979 175.12 329.917 153.182 329.917 126.12C329.917 99.0576 307.979 77.1196 280.917 77.1196C253.855 77.1196 231.917 99.0576 231.917 126.12C231.917 153.182 253.855 175.12 280.917 175.12Z" fill="black"/>
<path d="M370.917 167.12C370.917 194.182 348.979 216.12 321.917 216.12C294.855 216.12 272.917 194.182 272.917 167.12C272.917 140.058 294.855 118.12 321.917 118.12C348.979 118.12 370.917 140.058 370.917 167.12Z" fill="#FFA8D0"/>
<path fill-rule="evenodd" clip-rule="evenodd" d="M375.917 167.12C375.917 196.943 351.74 221.12 321.917 221.12C292.094 221.12 267.917 196.943 267.917 167.12C267.917 137.296 292.094 113.12 321.917 113.12C351.74 113.12 375.917 137.296 375.917 167.12ZM321.917 216.12C348.979 216.12 370.917 194.182 370.917 167.12C370.917 140.058 348.979 118.12 321.917 118.12C294.855 118.12 272.917 140.058 272.917 167.12C272.917 194.182 294.855 216.12 321.917 216.12Z" fill="black"/>
<path d="M32.0914 191.907C24.0432 188.259 20.4207 178.739 24.6988 171.007C34.0261 154.149 45.7294 138.735 59.4177 125.324C76.8884 108.207 97.2506 94.6891 119.342 85.5413C141.433 76.3934 164.82 71.7951 188.168 72.0089C211.516 72.2227 234.368 77.2444 255.418 86.7872C276.469 96.3301 295.306 110.207 310.855 127.626C326.403 145.046 338.358 165.665 346.037 188.309C353.716 210.952 356.969 235.176 355.609 259.597C354.544 278.73 350.665 297.691 344.133 315.816C341.137 324.129 331.59 327.679 323.542 324.03L177.817 257.969L32.0914 191.907Z" fill="#FFEA51"/>
<path fill-rule="evenodd" clip-rule="evenodd" d="M20.3243 168.586C29.8838 151.309 41.881 135.506 55.919 121.753C73.8359 104.199 94.7335 90.3199 117.429 80.9217C140.126 71.5231 164.178 66.789 188.214 67.0091C212.251 67.2292 235.791 72.3998 257.483 82.2333C279.175 92.0668 298.578 106.363 314.585 124.297C330.592 142.229 342.883 163.439 350.773 186.703C358.662 209.966 361.996 234.83 360.602 259.874C359.51 279.497 355.532 298.935 348.838 317.511C344.762 328.821 331.935 333.324 321.478 328.584L30.0275 196.461C19.5706 191.721 14.504 179.105 20.3243 168.586ZM24.6992 171.007C20.4212 178.739 24.0437 188.259 32.0919 191.907L323.543 324.03C331.591 327.679 341.138 324.129 344.134 315.816C350.665 297.691 354.545 278.73 355.61 259.597C356.969 235.176 353.717 210.952 346.038 188.309C338.358 165.665 326.403 145.046 310.855 127.626C295.307 110.207 276.469 96.3301 255.419 86.7872C234.368 77.2444 211.516 72.2227 188.168 72.0089C164.82 71.7951 141.433 76.3934 119.342 85.5413C97.2511 94.6891 76.8889 108.207 59.4181 125.324C45.7299 138.735 34.0266 154.149 24.6992 171.007Z" fill="black"/>
<circle cx="329.664" cy="316.814" r="3" transform="rotate(-155.305 329.664 316.814)" fill="black"/>
<circle cx="317.853" cy="311.383" r="3" transform="rotate(-155.305 317.853 311.383)" fill="black"/>
<circle cx="306.042" cy="305.952" r="3" transform="rotate(-155.305 306.042 305.952)" fill="black"/>
<circle cx="294.231" cy="300.52" r="3" transform="rotate(-155.305 294.231 300.52)" fill="black"/>
<circle cx="282.42" cy="295.089" r="3" transform="rotate(-155.305 282.42 295.089)" fill="black"/>
<circle cx="270.609" cy="289.658" r="3" transform="rotate(-155.305 270.609 289.658)" fill="black"/>
<circle cx="258.798" cy="284.227" r="3" transform="rotate(-155.305 258.798 284.227)" fill="black"/>
<circle cx="246.987" cy="278.795" r="3" transform="rotate(-155.305 246.987 278.795)" fill="black"/>
<circle cx="235.176" cy="273.364" r="3" transform="rotate(-155.305 235.176 273.364)" fill="black"/>
<circle cx="223.365" cy="267.933" r="3" transform="rotate(-155.305 223.365 267.933)" fill="black"/>
<circle cx="211.554" cy="262.502" r="3" transform="rotate(-155.305 211.554 262.502)" fill="black"/>
<circle cx="199.743" cy="257.07" r="3" transform="rotate(-155.305 199.743 257.07)" fill="black"/>
<circle cx="187.931" cy="251.639" r="3" transform="rotate(-155.305 187.931 251.639)" fill="black"/>
<circle cx="176.12" cy="246.208" r="3" transform="rotate(-155.305 176.12 246.208)" fill="black"/>
<circle cx="164.309" cy="240.777" r="3" transform="rotate(-155.305 164.309 240.777)" fill="black"/>
<circle cx="152.498" cy="235.345" r="3" transform="rotate(-155.305 152.498 235.345)" fill="black"/>
<circle cx="140.687" cy="229.914" r="3" transform="rotate(-155.305 140.687 229.914)" fill="black"/>
<circle cx="128.876" cy="224.483" r="3" transform="rotate(-155.305 128.876 224.483)" fill="black"/>
<circle cx="117.065" cy="219.052" r="3" transform="rotate(-155.305 117.065 219.052)" fill="black"/>
<circle cx="105.254" cy="213.62" r="3" transform="rotate(-155.305 105.254 213.62)" fill="black"/>
<circle cx="93.4428" cy="208.189" r="3" transform="rotate(-155.305 93.4428 208.189)" fill="black"/>
<circle cx="81.6322" cy="202.758" r="3" transform="rotate(-155.305 81.6322 202.758)" fill="black"/>
<circle cx="69.8207" cy="197.327" r="3" transform="rotate(-155.305 69.8207 197.327)" fill="black"/>
<circle cx="58.0102" cy="191.895" r="3" transform="rotate(-155.305 58.0102 191.895)" fill="black"/>
<circle cx="46.1986" cy="186.464" r="3" transform="rotate(-155.305 46.1986 186.464)" fill="black"/>
<circle cx="34.3871" cy="181.033" r="3" transform="rotate(-155.305 34.3871 181.033)" fill="black"/>
<circle cx="334.664" cy="304.814" r="3" transform="rotate(-155.305 334.664 304.814)" fill="black"/>
<circle cx="322.853" cy="299.383" r="3" transform="rotate(-155.305 322.853 299.383)" fill="black"/>
<circle cx="311.042" cy="293.952" r="3" transform="rotate(-155.305 311.042 293.952)" fill="black"/>
<circle cx="299.231" cy="288.52" r="3" transform="rotate(-155.305 299.231 288.52)" fill="black"/>
<circle cx="287.42" cy="283.089" r="3" transform="rotate(-155.305 287.42 283.089)" fill="black"/>
<circle cx="275.609" cy="277.658" r="3" transform="rotate(-155.305 275.609 277.658)" fill="black"/>
<circle cx="263.798" cy="272.227" r="3" transform="rotate(-155.305 263.798 272.227)" fill="black"/>
<circle cx="251.987" cy="266.795" r="3" transform="rotate(-155.305 251.987 266.795)" fill="black"/>
<circle cx="240.176" cy="261.364" r="3" transform="rotate(-155.305 240.176 261.364)" fill="black"/>
<circle cx="228.365" cy="255.933" r="3" transform="rotate(-155.305 228.365 255.933)" fill="black"/>
<circle cx="216.554" cy="250.502" r="3" transform="rotate(-155.305 216.554 250.502)" fill="black"/>
<circle cx="204.743" cy="245.07" r="3" transform="rotate(-155.305 204.743 245.07)" fill="black"/>
<circle cx="192.931" cy="239.639" r="3" transform="rotate(-155.305 192.931 239.639)" fill="black"/>
<circle cx="181.12" cy="234.208" r="3" transform="rotate(-155.305 181.12 234.208)" fill="black"/>
<circle cx="169.309" cy="228.777" r="3" transform="rotate(-155.305 169.309 228.777)" fill="black"/>
<circle cx="157.498" cy="223.345" r="3" transform="rotate(-155.305 157.498 223.345)" fill="black"/>
<circle cx="145.687" cy="217.914" r="3" transform="rotate(-155.305 145.687 217.914)" fill="black"/>
<circle cx="133.876" cy="212.483" r="3" transform="rotate(-155.305 133.876 212.483)" fill="black"/>
<circle cx="122.065" cy="207.052" r="3" transform="rotate(-155.305 122.065 207.052)" fill="black"/>
<circle cx="110.254" cy="201.62" r="3" transform="rotate(-155.305 110.254 201.62)" fill="black"/>
<circle cx="98.4428" cy="196.189" r="3" transform="rotate(-155.305 98.4428 196.189)" fill="black"/>
<circle cx="86.6322" cy="190.758" r="3" transform="rotate(-155.305 86.6322 190.758)" fill="black"/>
<circle cx="74.8207" cy="185.327" r="3" transform="rotate(-155.305 74.8207 185.327)" fill="black"/>
<circle cx="63.0102" cy="179.895" r="3" transform="rotate(-155.305 63.0102 179.895)" fill="black"/>
<circle cx="51.1986" cy="174.464" r="3" transform="rotate(-155.305 51.1986 174.464)" fill="black"/>
<circle cx="39.3871" cy="169.033" r="3" transform="rotate(-155.305 39.3871 169.033)" fill="black"/>
<circle cx="340.664" cy="293.814" r="3" transform="rotate(-155.305 340.664 293.814)" fill="black"/>
<circle cx="328.853" cy="288.383" r="3" transform="rotate(-155.305 328.853 288.383)" fill="black"/>
<circle cx="317.042" cy="282.952" r="3" transform="rotate(-155.305 317.042 282.952)" fill="black"/>
<circle cx="305.231" cy="277.52" r="3" transform="rotate(-155.305 305.231 277.52)" fill="black"/>
<circle cx="293.42" cy="272.089" r="3" transform="rotate(-155.305 293.42 272.089)" fill="black"/>
<circle cx="281.609" cy="266.658" r="3" transform="rotate(-155.305 281.609 266.658)" fill="black"/>
<circle cx="269.798" cy="261.227" r="3" transform="rotate(-155.305 269.798 261.227)" fill="black"/>
<circle cx="257.987" cy="255.795" r="3" transform="rotate(-155.305 257.987 255.795)" fill="black"/>
<circle cx="246.176" cy="250.364" r="3" transform="rotate(-155.305 246.176 250.364)" fill="black"/>
<circle cx="234.365" cy="244.933" r="3" transform="rotate(-155.305 234.365 244.933)" fill="black"/>
<circle cx="222.554" cy="239.502" r="3" transform="rotate(-155.305 222.554 239.502)" fill="black"/>
<circle cx="210.743" cy="234.07" r="3" transform="rotate(-155.305 210.743 234.07)" fill="black"/>
<circle cx="198.931" cy="228.639" r="3" transform="rotate(-155.305 198.931 228.639)" fill="black"/>
<circle cx="187.12" cy="223.208" r="3" transform="rotate(-155.305 187.12 223.208)" fill="black"/>
<circle cx="175.309" cy="217.777" r="3" transform="rotate(-155.305 175.309 217.777)" fill="black"/>
<circle cx="163.498" cy="212.345" r="3" transform="rotate(-155.305 163.498 212.345)" fill="black"/>
<circle cx="151.687" cy="206.914" r="3" transform="rotate(-155.305 151.687 206.914)" fill="black"/>
<circle cx="139.876" cy="201.483" r="3" transform="rotate(-155.305 139.876 201.483)" fill="black"/>
<circle cx="128.065" cy="196.052" r="3" transform="rotate(-155.305 128.065 196.052)" fill="black"/>
<circle cx="116.254" cy="190.62" r="3" transform="rotate(-155.305 116.254 190.62)" fill="black"/>
<circle cx="104.443" cy="185.189" r="3" transform="rotate(-155.305 104.443 185.189)" fill="black"/>
<circle cx="92.6322" cy="179.758" r="3" transform="rotate(-155.305 92.6322 179.758)" fill="black"/>
<circle cx="80.8207" cy="174.327" r="3" transform="rotate(-155.305 80.8207 174.327)" fill="black"/>
<circle cx="69.0102" cy="168.895" r="3" transform="rotate(-155.305 69.0102 168.895)" fill="black"/>
<circle cx="57.1986" cy="163.464" r="3" transform="rotate(-155.305 57.1986 163.464)" fill="black"/>
<circle cx="45.3871" cy="158.033" r="3" transform="rotate(-155.305 45.3871 158.033)" fill="black"/>
<circle cx="74.0092" cy="155.896" r="3" transform="rotate(-155.305 74.0092 155.896)" fill="black"/>
<circle cx="62.1977" cy="150.464" r="3" transform="rotate(-155.305 62.1977 150.464)" fill="black"/>
<circle cx="50.3871" cy="145.033" r="3" transform="rotate(-155.305 50.3871 145.033)" fill="black"/>
<circle cx="346.519" cy="281.961" r="3" transform="rotate(-155.305 346.519 281.961)" fill="black"/>
<circle cx="334.707" cy="276.53" r="3" transform="rotate(-155.305 334.707 276.53)" fill="black"/>
<circle cx="322.897" cy="271.099" r="3" transform="rotate(-155.305 322.897 271.099)" fill="black"/>
<circle cx="351.707" cy="270.53" r="3" transform="rotate(-155.305 351.707 270.53)" fill="black"/>
<circle cx="339.896" cy="265.098" r="3" transform="rotate(-155.305 339.896 265.098)" fill="black"/>
<circle cx="66.7074" cy="139.53" r="3" transform="rotate(-155.305 66.7074 139.53)" fill="black"/>
<circle cx="54.8959" cy="134.098" r="3" transform="rotate(-155.305 54.8959 134.098)" fill="black"/>
</svg>
